<svg id="Группа_1" data-name="Группа 1" xmlns="http://www.w3.org/2000/svg" width="180.875" height="19.719" viewBox="0 0 180.875 19.719"><defs><style>.cls-1 { fill: #e7526b; } .cls-1, .cls-2 { fill-rule: evenodd; } .cls-2 { fill: #fff; }</style></defs><path id="pex" class="cls-1" d="M6.398.273l-.61-.28-4.6.61-.224.925 1.372.586-2.344 17.6h3.726l.832-5.965a6.54 6.54 0 0 0 1.184.104 7.265 7.265 0 0 0 5.742-2.555 8.444 8.444 0 0 0 1.594-2.784 9.4 9.4 0 0 0 .562-3.13 9.775 9.775 0 0 0-.257-2.477A3.614 3.614 0 0 0 9.543-.01a4.534 4.534 0 0 0-3.258 1.267zM6.035 3.18A2.3 2.3 0 0 1 7.792 2.04a1.337 1.337 0 0 1 .844.246 3.357 3.357 0 0 1 .938 2.79 12.938 12.938 0 0 1-.8 4.91A4.41 4.41 0 0 1 7.69 11.61a2.257 2.257 0 0 1-1.57.615 4 4 0 0 1-1.33-.164zm13.8 7.757a4.65 4.65 0 0 1-.586-2.65 10.6 10.6 0 0 0 3.21-.56 8.357 8.357 0 0 0 1.565-.7A5.8 5.8 0 0 0 25.33 6.01a4.242 4.242 0 0 0 .87-1.324 3.987 3.987 0 0 0 .3-1.535 3.514 3.514 0 0 0-.258-1.395q-.786-1.77-3.6-1.77a6.96 6.96 0 0 0-5.414 2.427 8.75 8.75 0 0 0-2.192 6.094v.07a6.29 6.29 0 0 0 .5 2.554 4.853 4.853 0 0 0 .657 1.084 3.885 3.885 0 0 0 .972.86 4.854 4.854 0 0 0 1.32.57 6.745 6.745 0 0 0 1.774.2 6.582 6.582 0 0 0 1.944-.282 6.06 6.06 0 0 0 3.47-2.437l-.737-1.2a4.254 4.254 0 0 1-3.492 1.83 1.87 1.87 0 0 1-1.606-.823zm2.907-7.7a3.352 3.352 0 0 1-1.2 2.66 3.87 3.87 0 0 1-2.3.984q.34-5.273 2.532-5.273.97.002.972 1.63zm13.558 6.88L34.437 6.74 39.675.086H36.1l-2.6 4.09-1-2.953q-.385-1.23-2.19-1.23a5.46 5.46 0 0 0-1.477.176 4.06 4.06 0 0 0-2.2 1.16l.457.984a1.816 1.816 0 0 1 .938-.223.97.97 0 0 1 .715.632l.2.34 1.933 3.68-5.425 6.88h3.692l2.73-4.372 1.16 3.375a1.958 1.958 0 0 0 2.087 1.23 5.22 5.22 0 0 0 1.627-.234 4.348 4.348 0 0 0 2.415-1.558l-.528-.984a1.97 1.97 0 0 1-.96.445.96.96 0 0 1-.64-.275 3.917 3.917 0 0 1-.732-1.13z"/><path id="Photoshop_Website_template" data-name="Photoshop Website template" class="cls-2" d="M54.107 6.76a2.766 2.766 0 0 0 .88-2.135v-.083q-.03-1.9-2.233-1.9l-1.39.083h-1.237l-.058.493.648.112-.786 6.3-.723.146-.044.42h2.65l.04-.425-.957-.14.248-2.11c.17.013.324.02.464.02h.375a3 3 0 0 0 2.12-.776zm-2.42-3.44a5.584 5.584 0 0 1 1.025-.1 1.055 1.055 0 0 1 1.206.792 3.557 3.557 0 0 1 .054.7 3.94 3.94 0 0 1-.112.91q-.39 1.646-2.637 1.266zm8.67 6.647a1.117 1.117 0 0 0 .33-.336l-.15-.253a1.054 1.054 0 0 1-.523.273.162.162 0 0 1-.105-.16 4.188 4.188 0 0 1 .1-.992l.126-.776.14-.752a5.192 5.192 0 0 0 .11-.986 1.77 1.77 0 0 0-.3-1.147.788.788 0 0 0-.345-.252 1.353 1.353 0 0 0-.473-.076 1.728 1.728 0 0 0-.55.092 3.076 3.076 0 0 0-1.445 1.138l.464-3.477-.254-.132-1.3.2-.083.406.575.21-.943 7.236h.948l.488-3.662a3.7 3.7 0 0 1 .835-.888 2.142 2.142 0 0 1 .44-.26 1.128 1.128 0 0 1 .45-.096.486.486 0 0 1 .35.112.527.527 0 0 1 .122.23 1.946 1.946 0 0 1 .044.49 6.143 6.143 0 0 1-.1.93q-.042.265-.09.516c-.032.167-.06.32-.085.46l-.127.71a7.875 7.875 0 0 0-.115.917.532.532 0 0 0 .6.64 1.57 1.57 0 0 0 .86-.32zm3.276.322a2.278 2.278 0 0 0 .8-.138 2.78 2.78 0 0 0 1.24-.967 3.893 3.893 0 0 0 .757-2.378 2.548 2.548 0 0 0-.513-1.7 1.634 1.634 0 0 0-.605-.44 2.01 2.01 0 0 0-.794-.15 2.207 2.207 0 0 0-.8.142 2.673 2.673 0 0 0-1.235.96 3.882 3.882 0 0 0-.757 2.345 2.1 2.1 0 0 0 1.113 2.178 2.01 2.01 0 0 0 .79.146zm-.9-2.325a4.59 4.59 0 0 1 .36-1.86 2.378 2.378 0 0 1 .31-.515 1.426 1.426 0 0 1 .406-.352 1 1 0 0 1 .5-.13.947.947 0 0 1 .472.113 1.72 1.72 0 0 1 .625 1.617 4.59 4.59 0 0 1-.36 1.86 2.37 2.37 0 0 1-.31.515 1.422 1.422 0 0 1-.406.352.993.993 0 0 1-.5.13.918.918 0 0 1-.472-.118 1.707 1.707 0 0 1-.625-1.61zm6.306 2.256a2.22 2.22 0 0 0 1.1-.64l-.088-.38a2.814 2.814 0 0 1-.45.263 2.03 2.03 0 0 1-.263.105 1.03 1.03 0 0 1-.307.04.31.31 0 0 1-.25-.092.28.28 0 0 1-.062-.136 1.7 1.7 0 0 1-.016-.3 6.9 6.9 0 0 1 .083-.8l.4-3.057h1.265l.1-.68h-1.28l.167-1.273h-.463a5.058 5.058 0 0 1-.65 1.3l-.6.23-.1.424h.586L67.77 8.76a5.642 5.642 0 0 0-.06.6v.053a.78.78 0 0 0 .894.874 1.524 1.524 0 0 0 .435-.068zm3.96.07a2.278 2.278 0 0 0 .8-.138 2.78 2.78 0 0 0 1.24-.967 3.893 3.893 0 0 0 .756-2.378 2.548 2.548 0 0 0-.513-1.7 1.634 1.634 0 0 0-.605-.44 2.01 2.01 0 0 0-.794-.15 2.207 2.207 0 0 0-.8.142 2.673 2.673 0 0 0-1.235.96 3.882 3.882 0 0 0-.758 2.345 2.1 2.1 0 0 0 1.113 2.178 2.01 2.01 0 0 0 .796.146zm-.9-2.325a4.59 4.59 0 0 1 .36-1.86 2.378 2.378 0 0 1 .31-.515 1.426 1.426 0 0 1 .405-.352 1 1 0 0 1 .5-.13.947.947 0 0 1 .473.113 1.72 1.72 0 0 1 .625 1.617 4.59 4.59 0 0 1-.36 1.86 2.37 2.37 0 0 1-.31.515 1.422 1.422 0 0 1-.406.352 1 1 0 0 1-.5.13.918.918 0 0 1-.473-.118 1.707 1.707 0 0 1-.625-1.61zM76.55 10a.71.71 0 0 0 .214.11 3.6 3.6 0 0 0 1.22.18 2.21 2.21 0 0 0 1.348-.4 1.462 1.462 0 0 0 .428-.486 1.57 1.57 0 0 0 .158-.752 1.626 1.626 0 0 0-.4-.974 4.23 4.23 0 0 0-.7-.64 1.572 1.572 0 0 1-.777-1.128.69.69 0 0 1 .328-.635.832.832 0 0 1 .28-.107 1.8 1.8 0 0 1 .343-.03 1.6 1.6 0 0 1 .39.05 1.2 1.2 0 0 1 .683.316l.185-.815a2.7 2.7 0 0 0-.366-.1 3.933 3.933 0 0 0-.884-.077 2.063 2.063 0 0 0-1.313.425 1.548 1.548 0 0 0-.413.5 1.578 1.578 0 0 0-.154.735 1.617 1.617 0 0 0 .38.95 2.8 2.8 0 0 0 .338.37 4.02 4.02 0 0 0 .32.263q.144.105.3.232a1.228 1.228 0 0 1 .542.942.6.6 0 0 1-.327.59.943.943 0 0 1-.316.094 3.152 3.152 0 0 1-.36.02 2.488 2.488 0 0 1-1.276-.367zm9.342-.033a1.117 1.117 0 0 0 .337-.332l-.143-.254a1.056 1.056 0 0 1-.523.274.165.165 0 0 1-.105-.16 4.277 4.277 0 0 1 .1-.992l.126-.776.14-.752a5.192 5.192 0 0 0 .11-.986 1.77 1.77 0 0 0-.3-1.147.794.794 0 0 0-.345-.25 1.353 1.353 0 0 0-.473-.077 1.728 1.728 0 0 0-.55.093 3.076 3.076 0 0 0-1.445 1.138l.464-3.477-.254-.132-1.3.2-.083.405.575.21-.943 7.236h.948l.488-3.662a3.7 3.7 0 0 1 .835-.888 2.142 2.142 0 0 1 .44-.26 1.128 1.128 0 0 1 .45-.096.486.486 0 0 1 .35.112.527.527 0 0 1 .122.23 1.946 1.946 0 0 1 .044.49 6.04 6.04 0 0 1-.1.93q-.04.265-.088.516c-.033.167-.06.32-.086.46l-.127.71a7.875 7.875 0 0 0-.116.917.532.532 0 0 0 .6.64 1.57 1.57 0 0 0 .86-.322zm3.277.322a2.278 2.278 0 0 0 .8-.138 2.78 2.78 0 0 0 1.24-.967 3.893 3.893 0 0 0 .756-2.378 2.548 2.548 0 0 0-.513-1.7 1.634 1.634 0 0 0-.6-.44 2.01 2.01 0 0 0-.794-.15 2.207 2.207 0 0 0-.8.142 2.673 2.673 0 0 0-1.236.96 3.882 3.882 0 0 0-.757 2.345 2.1 2.1 0 0 0 1.113 2.178 2.01 2.01 0 0 0 .795.146zm-.9-2.325a4.59 4.59 0 0 1 .36-1.86 2.378 2.378 0 0 1 .31-.515 1.426 1.426 0 0 1 .405-.352 1 1 0 0 1 .5-.13.947.947 0 0 1 .473.113 1.72 1.72 0 0 1 .625 1.617 4.59 4.59 0 0 1-.36 1.86 2.37 2.37 0 0 1-.31.515 1.422 1.422 0 0 1-.406.352 1 1 0 0 1-.5.13.918.918 0 0 1-.473-.118 1.707 1.707 0 0 1-.625-1.61zm8.658 1.055a4.043 4.043 0 0 0 .82-2.392 2.538 2.538 0 0 0-.405-1.514 1.454 1.454 0 0 0-1.255-.6 1.79 1.79 0 0 0-1.416.718l.088-.6-.23-.117-1.28.254-.086.385.532.25-.98 7.326h.926l.347-2.52a3.613 3.613 0 0 0 .756.08 2.24 2.24 0 0 0 .815-.167 3.027 3.027 0 0 0 1.378-1.1zM94.56 6.046a2.368 2.368 0 0 1 .26-.293 1.592 1.592 0 0 1 1.107-.542.67.67 0 0 1 .6.384 2.158 2.158 0 0 1 .22 1.065 4.467 4.467 0 0 1-.21 1.344 3.864 3.864 0 0 1-.262.638 2.506 2.506 0 0 1-.376.542 1.71 1.71 0 0 1-.5.376 1.5 1.5 0 0 1-.677.14 1.12 1.12 0 0 1-.652-.177zm7.89 4.194h.982l1.89-5.03.566 5.03h1l2.914-6.92.586-.106.073-.493h-2.06l-.053.494.64.117L107 8.254l-.362 1.113-.088-1.3-.512-4.75.732-.1.1-.494h-2.324l-.054.493.576.093.068.59-1.684 4.5-.274.968-.175-1.3-.577-4.76.76-.092.055-.493h-2.275l-.058.494.6.107zm8.9-.923a1.13 1.13 0 0 1-.2-.305 1.968 1.968 0 0 1-.122-.36 1.686 1.686 0 0 1-.05-.307v-.21s0-.122.01-.19a4.3 4.3 0 0 0 1.256-.255 5.212 5.212 0 0 0 .718-.3 3.077 3.077 0 0 0 .64-.423 2.08 2.08 0 0 0 .458-.554 1.252 1.252 0 0 0 .176-.628 1.48 1.48 0 0 0-.088-.542 1.23 1.23 0 0 0-1.3-.737 2.344 2.344 0 0 0-1.455.518 3.1 3.1 0 0 0-.573.58 3.965 3.965 0 0 0-.442.736 4.347 4.347 0 0 0-.29.842 3.715 3.715 0 0 0-.113.69c0 .165-.007.317-.007.457a2.33 2.33 0 0 0 .1.57 1.813 1.813 0 0 0 .967 1.2 2.122 2.122 0 0 0 .95.185 2.378 2.378 0 0 0 1.19-.352 2.2 2.2 0 0 0 .75-.635l-.224-.405a2.4 2.4 0 0 1-1.66.713.9.9 0 0 1-.683-.293zm-.107-2.876a3.822 3.822 0 0 1 .232-.5 2.383 2.383 0 0 1 .3-.433 1.417 1.417 0 0 1 .38-.305.965.965 0 0 1 .47-.115.582.582 0 0 1 .432.173.67.67 0 0 1 .17.49 1.107 1.107 0 0 1-.11.528 1.72 1.72 0 0 1-.7.694 3.06 3.06 0 0 1-1.408.44 4.51 4.51 0 0 1 .234-.967zm8.083 2.58a4.043 4.043 0 0 0 .82-2.393 2.538 2.538 0 0 0-.405-1.514 1.454 1.454 0 0 0-1.163-.6 1.855 1.855 0 0 0-.55.068 2.083 2.083 0 0 0-1.025.738l.41-3.052-.25-.132-1.17.19-.1.41.463.21-.967 7.344.478-.22a3.34 3.34 0 0 0 1.133.22 2.754 2.754 0 0 0 2.328-1.27zm-2.436-2.877a2.35 2.35 0 0 1 .597-.612 1.437 1.437 0 0 1 .844-.316.67.67 0 0 1 .6.383 2.158 2.158 0 0 1 .22 1.065 4.436 4.436 0 0 1-.21 1.345 3.864 3.864 0 0 1-.26.638 2.47 2.47 0 0 1-.377.542 1.7 1.7 0 0 1-.5.376 1.54 1.54 0 0 1-.69.14 1.053 1.053 0 0 1-.673-.2zM120.887 10a.723.723 0 0 0 .215.11 3.6 3.6 0 0 0 1.22.18 2.215 2.215 0 0 0 1.35-.4 1.46 1.46 0 0 0 .426-.486 1.56 1.56 0 0 0 .158-.752 1.62 1.62 0 0 0-.395-.974 4.23 4.23 0 0 0-.7-.64 1.572 1.572 0 0 1-.776-1.128.688.688 0 0 1 .328-.635.82.82 0 0 1 .278-.107 1.8 1.8 0 0 1 .344-.03 1.593 1.593 0 0 1 .388.05 1.2 1.2 0 0 1 .684.316l.185-.815a2.7 2.7 0 0 0-.365-.1 3.933 3.933 0 0 0-.884-.077 2.063 2.063 0 0 0-1.312.425 1.548 1.548 0 0 0-.413.5 1.578 1.578 0 0 0-.154.735 1.617 1.617 0 0 0 .382.95 2.8 2.8 0 0 0 .337.37c.117.105.223.193.32.263s.2.147.3.232a1.228 1.228 0 0 1 .54.942.6.6 0 0 1-.326.59.937.937 0 0 1-.317.094 3.152 3.152 0 0 1-.36.02 2.32 2.32 0 0 1-.387-.035 2.29 2.29 0 0 1-.89-.333zm6.756-6.8a.74.74 0 0 0 .23-.53.5.5 0 0 0-.343-.494.848.848 0 0 0-.3-.044.638.638 0 0 0-.415.21.676.676 0 0 0-.24.513.52.52 0 0 0 .337.513.563.563 0 0 0 .235.05.7.7 0 0 0 .5-.216zm-.8 7a1.728 1.728 0 0 0 .776-.62l-.157-.258a.955.955 0 0 1-.523.327c-.08 0-.122-.07-.122-.21a1.024 1.024 0 0 1 .015-.162l.68-4.65-.24-.116-1.475.25-.088.4.723.248-.454 2.988a10.65 10.65 0 0 0-.163 1.338.515.515 0 0 0 .606.557 1.036 1.036 0 0 0 .42-.088zm3.474.02a2.22 2.22 0 0 0 1.1-.64l-.087-.38a2.77 2.77 0 0 1-.45.263 1.976 1.976 0 0 1-.263.105 1.028 1.028 0 0 1-.305.04.31.31 0 0 1-.252-.092.28.28 0 0 1-.06-.136 1.806 1.806 0 0 1-.018-.3 7.144 7.144 0 0 1 .083-.8l.405-3.057h1.265l.1-.68h-1.28l.166-1.273h-.463a5.058 5.058 0 0 1-.65 1.3l-.6.23-.1.424h.587l-.445 3.535a5.642 5.642 0 0 0-.06.6v.053a.78.78 0 0 0 .894.874 1.524 1.524 0 0 0 .435-.068zm3.435-.9a1.108 1.108 0 0 1-.2-.304 1.9 1.9 0 0 1-.122-.36 1.6 1.6 0 0 1-.05-.307c0-.082-.004-.152-.004-.21a1.867 1.867 0 0 1 .01-.192 4.3 4.3 0 0 0 1.254-.254 5.16 5.16 0 0 0 .718-.3 3.084 3.084 0 0 0 .64-.423 2.08 2.08 0 0 0 .46-.553 1.262 1.262 0 0 0 .175-.628 1.5 1.5 0 0 0-.088-.543 1.23 1.23 0 0 0-1.3-.737 2.34 2.34 0 0 0-1.455.518 3.077 3.077 0 0 0-.574.58 4.02 4.02 0 0 0-.442.736 4.345 4.345 0 0 0-.29.842 3.734 3.734 0 0 0-.113.69c0 .165-.006.317-.006.457a2.342 2.342 0 0 0 .1.57 1.81 1.81 0 0 0 .967 1.2 2.117 2.117 0 0 0 .95.186 2.375 2.375 0 0 0 1.19-.353 2.188 2.188 0 0 0 .75-.635l-.223-.405a2.4 2.4 0 0 1-1.66.713.9.9 0 0 1-.684-.293zm-.108-2.875a3.955 3.955 0 0 1 .232-.5 2.437 2.437 0 0 1 .3-.434 1.4 1.4 0 0 1 .378-.304.966.966 0 0 1 .472-.115.582.582 0 0 1 .432.174.67.67 0 0 1 .17.49 1.107 1.107 0 0 1-.112.528 1.713 1.713 0 0 1-.7.694 3.057 3.057 0 0 1-1.406.44 4.448 4.448 0 0 1 .234-.967zm8.062 3.78a2.22 2.22 0 0 0 1.1-.64l-.088-.382a2.756 2.756 0 0 1-.45.263 2.03 2.03 0 0 1-.262.105 1.03 1.03 0 0 1-.306.042.31.31 0 0 1-.25-.093.28.28 0 0 1-.062-.137 1.7 1.7 0 0 1-.017-.3 6.9 6.9 0 0 1 .084-.8l.405-3.057h1.264l.1-.68h-1.28l.167-1.273h-.463a5.058 5.058 0 0 1-.65 1.3l-.6.23-.1.424h.59l-.445 3.535a5.642 5.642 0 0 0-.058.6v.054a.78.78 0 0 0 .893.874 1.524 1.524 0 0 0 .435-.068zm3.435-.9a1.11 1.11 0 0 1-.2-.306 2.047 2.047 0 0 1-.12-.36 1.672 1.672 0 0 1-.05-.308v-.21s0-.122.01-.19a4.3 4.3 0 0 0 1.255-.255 5.212 5.212 0 0 0 .718-.3 3.084 3.084 0 0 0 .64-.423 2.1 2.1 0 0 0 .46-.554 1.262 1.262 0 0 0 .175-.628 1.5 1.5 0 0 0-.088-.542 1.23 1.23 0 0 0-1.3-.737 2.34 2.34 0 0 0-1.453.518 3.077 3.077 0 0 0-.574.582 4.02 4.02 0 0 0-.442.735 4.345 4.345 0 0 0-.29.842 3.734 3.734 0 0 0-.112.69c0 .164-.007.316-.007.456a2.294 2.294 0 0 0 .1.57 1.812 1.812 0 0 0 .967 1.2 2.125 2.125 0 0 0 .95.186 2.375 2.375 0 0 0 1.19-.352 2.188 2.188 0 0 0 .75-.635l-.224-.405a2.4 2.4 0 0 1-1.66.713.9.9 0 0 1-.683-.293zm-.107-2.877a3.955 3.955 0 0 1 .232-.5 2.437 2.437 0 0 1 .3-.434 1.4 1.4 0 0 1 .378-.305.966.966 0 0 1 .472-.116.582.582 0 0 1 .432.173.67.67 0 0 1 .17.49 1.107 1.107 0 0 1-.112.528 1.713 1.713 0 0 1-.7.694 3.057 3.057 0 0 1-1.406.44 4.448 4.448 0 0 1 .233-.968zm11.863 3.5a1.423 1.423 0 0 0 .342-.356l-.15-.26a.993.993 0 0 1-.533.32.1.1 0 0 1-.088-.1 2.262 2.262 0 0 1 0-.443q.02-.347.32-2.17a5.773 5.773 0 0 0 .1-.95 1.735 1.735 0 0 0-.312-1.13.875.875 0 0 0-.35-.263 1.213 1.213 0 0 0-.458-.083 1.56 1.56 0 0 0-.52.093 3.136 3.136 0 0 0-1.4 1.113 1.486 1.486 0 0 0-.327-.938.8.8 0 0 0-.325-.2 1.37 1.37 0 0 0-.44-.064 1.59 1.59 0 0 0-.52.093 3.16 3.16 0 0 0-1.45 1.06l.102-1.04-.234-.116-1.182.254-.087.434.484.288-.635 4.7h.952l.5-3.686a4.04 4.04 0 0 1 .835-.87 2.1 2.1 0 0 1 .436-.258 1.15 1.15 0 0 1 .457-.093.447.447 0 0 1 .342.112.53.53 0 0 1 .1.23 3.326 3.326 0 0 1 .034.6 10.288 10.288 0 0 1-.128 1.338l-.075.468-.273 2.164h.962l.312-2.465q.108-.7.15-1.237a3.923 3.923 0 0 1 .788-.85 2.114 2.114 0 0 1 .412-.253.987.987 0 0 1 .415-.093.405.405 0 0 1 .315.112.533.533 0 0 1 .11.224 2.263 2.263 0 0 1 .042.53 10.465 10.465 0 0 1-.162 1.384l-.16 1a8.323 8.323 0 0 0-.118 1.172.51.51 0 0 0 .58.57 1.413 1.413 0 0 0 .84-.35zm5.373-.918a4.043 4.043 0 0 0 .82-2.392 2.53 2.53 0 0 0-.406-1.514 1.453 1.453 0 0 0-1.254-.6 1.79 1.79 0 0 0-1.416.718l.087-.6-.228-.117-1.28.254-.087.385.532.25-.99 7.316h.93l.345-2.52a3.62 3.62 0 0 0 .757.08 2.24 2.24 0 0 0 .814-.167 3.027 3.027 0 0 0 1.377-1.1zm-2.37-2.974a2.368 2.368 0 0 1 .26-.293 1.594 1.594 0 0 1 1.108-.542.67.67 0 0 1 .6.384 2.158 2.158 0 0 1 .22 1.065 4.436 4.436 0 0 1-.21 1.344 3.864 3.864 0 0 1-.262.638 2.5 2.5 0 0 1-.375.542 1.7 1.7 0 0 1-.5.376 1.5 1.5 0 0 1-.675.14 1.12 1.12 0 0 1-.652-.177zm5.37 3.233l.986-7.013-.234-.132-1.28.2-.1.405.6.21-.9 6.3a2.35 2.35 0 0 0-.03.376.76.76 0 0 0 .135.508.605.605 0 0 0 .47.15 1.445 1.445 0 0 0 .807-.356 1.19 1.19 0 0 0 .327-.352l-.15-.254a.976.976 0 0 1-.528.322q-.156 0-.1-.37zm4.9.35v.07a.536.536 0 0 0 .62.59 1.425 1.425 0 0 0 .792-.3.955.955 0 0 0 .3-.3l-.15-.26a.865.865 0 0 1-.384.226.18.18 0 0 1-.16-.102.44.44 0 0 1-.033-.285l.64-4.762-.58.166a3.135 3.135 0 0 0-.993-.17 2.433 2.433 0 0 0-.908.17 3.36 3.36 0 0 0-1.855 1.875 3.93 3.93 0 0 0-.377 1.62 2.567 2.567 0 0 0 .395 1.514 1.4 1.4 0 0 0 1.216.6 1.89 1.89 0 0 0 1.493-.763zm.118-.893a2.566 2.566 0 0 1-.254.3 1.6 1.6 0 0 1-1.162.557.64.64 0 0 1-.58-.41 1.7 1.7 0 0 1-.158-.48 4.51 4.51 0 0 1-.053-.792 3.72 3.72 0 0 1 .21-1.145 3.65 3.65 0 0 1 .272-.627 2.372 2.372 0 0 1 .388-.53 1.79 1.79 0 0 1 .51-.366 1.53 1.53 0 0 1 .666-.137 1.045 1.045 0 0 1 .61.16zm4.274 1.484a2.224 2.224 0 0 0 1.1-.64l-.088-.38a2.756 2.756 0 0 1-.45.263 1.988 1.988 0 0 1-.263.105 1.024 1.024 0 0 1-.3.04.31.31 0 0 1-.25-.092.27.27 0 0 1-.06-.136 1.7 1.7 0 0 1-.018-.3 6.9 6.9 0 0 1 .083-.8l.405-3.057h1.267l.1-.68h-1.28l.167-1.273h-.464a5.058 5.058 0 0 1-.65 1.3l-.6.23-.1.424h.587l-.444 3.535a5.74 5.74 0 0 0-.06.6v.053a.78.78 0 0 0 .895.874 1.518 1.518 0 0 0 .434-.068zm3.435-.9a1.13 1.13 0 0 1-.2-.304 1.968 1.968 0 0 1-.122-.36 1.778 1.778 0 0 1-.05-.307v-.21s0-.123.01-.192a4.3 4.3 0 0 0 1.256-.254 5.212 5.212 0 0 0 .72-.3 3.11 3.11 0 0 0 .64-.423 2.12 2.12 0 0 0 .458-.553 1.26 1.26 0 0 0 .175-.628 1.48 1.48 0 0 0-.088-.543 1.23 1.23 0 0 0-1.3-.737 2.345 2.345 0 0 0-1.456.518 3.1 3.1 0 0 0-.574.58 4.02 4.02 0 0 0-.442.736 4.347 4.347 0 0 0-.29.842 3.715 3.715 0 0 0-.113.69c0 .165-.006.317-.006.457a2.33 2.33 0 0 0 .1.57 1.816 1.816 0 0 0 .967 1.2 2.122 2.122 0 0 0 .95.186 2.375 2.375 0 0 0 1.19-.353 2.2 2.2 0 0 0 .752-.635l-.225-.405a2.4 2.4 0 0 1-1.66.713.9.9 0 0 1-.684-.293zm-.107-2.875a3.822 3.822 0 0 1 .232-.5 2.34 2.34 0 0 1 .3-.434 1.4 1.4 0 0 1 .378-.304.965.965 0 0 1 .47-.115.582.582 0 0 1 .433.174.67.67 0 0 1 .17.49 1.107 1.107 0 0 1-.11.528 1.713 1.713 0 0 1-.7.694 3.057 3.057 0 0 1-1.407.44 4.448 4.448 0 0 1 .234-.967z"/></svg>